<svg xmlns="http://www.w3.org/2000/svg" width="512" height="512" viewBox="0 0 512 512" version="1.1">
	<path d="M 328 30.648 C 296.554 35.452, 280.382 44.420, 264.031 66.120 L 258.068 74.033 256.612 71.217 C 255.811 69.668, 254.186 65.273, 253 61.450 C 249.571 50.393, 248.881 49.008, 246.500 48.411 C 243.898 47.758, 230.238 54.215, 229.355 56.516 C 229.050 57.311, 230.001 61.436, 231.467 65.683 C 237.806 84.039, 239.687 98.033, 238.027 114.500 C 235.722 137.379, 232.652 151, 229.801 151 C 229.085 151, 224.268 148.081, 219.095 144.513 C 209.293 137.752, 198.718 133.074, 188.500 130.978 C 180.969 129.433, 161.575 129.411, 153 130.937 C 96.615 140.973, 61.139 197.973, 71.944 261.172 C 77.845 295.688, 98.553 333.029, 123.883 354.831 C 137.768 366.781, 146.359 372.343, 173.415 386.901 C 194.409 398.197, 205.550 405.177, 217.721 414.659 C 226.809 421.739, 240.120 434.681, 246.118 442.268 C 249.604 446.678, 250 447.764, 250 452.906 C 250 460.695, 248.428 468.602, 245.396 476.065 C 242.880 482.255, 242.876 482.320, 244.814 484.258 C 248.518 487.963, 266.469 487.870, 271.097 484.122 L 273.281 482.354 271.161 475.927 C 267.906 466.056, 265.999 455.602, 266.010 447.685 C 266.019 440.979, 266.255 440.200, 269.559 436 C 274.823 429.308, 287.742 416.376, 294 411.532 C 303.922 403.854, 314.117 397.786, 336.433 386.277 C 348.532 380.037, 362.947 371.931, 368.466 368.263 C 380.961 359.959, 400.726 340.425, 410.216 327 C 423.193 308.642, 433.906 284.786, 438.078 264.957 C 442.386 244.479, 440.493 217.631, 433.335 197.699 C 421.387 164.426, 396.374 140.498, 364.500 131.850 C 353.682 128.915, 328.873 128.637, 319 131.340 C 309.582 133.919, 295.449 141.101, 288.306 146.938 C 284.899 149.722, 281.627 152, 281.035 152 C 276.711 152, 272.366 115.667, 274.983 101.399 C 279.275 77.999, 292.653 61.311, 313.368 53.513 C 320.061 50.994, 335.450 48.025, 342 47.989 C 347.986 47.956, 348.439 47.180, 347.045 39.358 C 345.145 28.696, 345.312 28.988, 341.183 29.098 C 339.157 29.152, 333.225 29.849, 328 30.648 M 176.344 163.041 C 170.875 164.123, 164.940 167.214, 161.255 170.899 C 158.493 173.661, 154 181.737, 154 183.939 C 154 186.102, 150.663 186.703, 146.167 185.350 C 137.189 182.648, 124.491 187.237, 116.789 195.966 C 105.086 209.232, 100.623 229.692, 105.768 246.500 C 109.145 257.532, 113.985 262.889, 120.643 262.965 C 124.337 263.006, 125.383 264.868, 123.897 268.759 C 122.440 272.575, 122.417 283.043, 123.860 285.738 C 125.797 289.357, 128.953 289.444, 135.393 286.056 C 142.736 282.194, 148.604 281.992, 154.423 285.402 C 161.125 289.329, 163.302 294.805, 165.580 313.460 C 166.062 317.411, 166.938 319.173, 169.879 322.114 C 173.429 325.664, 176.613 326.977, 185.250 328.451 C 189.636 329.199, 190.084 331.059, 186.452 333.439 C 182.913 335.759, 180.008 340.875, 180.004 344.800 C 179.996 351.686, 184.005 356.078, 200.241 366.971 C 206.148 370.935, 213.255 376.222, 216.034 378.720 C 225.200 386.962, 236.375 401.883, 247.512 420.750 C 250.190 425.288, 252.792 429, 253.295 429 C 253.823 429, 253.937 425.729, 253.565 421.250 C 253.212 416.988, 252.520 399.444, 252.029 382.264 C 251.537 365.084, 250.871 350.600, 250.548 350.078 C 250.226 349.556, 247.608 348.050, 244.731 346.732 C 233.642 341.650, 221.377 329.074, 199.657 300.514 C 192.971 291.722, 184.405 281.259, 180.623 277.264 C 176.705 273.126, 174.399 270, 175.263 270 C 178.317 270, 188.794 278.957, 200.492 291.570 C 219.444 312.003, 234.091 326.916, 239.340 331.122 C 244.413 335.187, 248.368 336.090, 249.393 333.418 C 250.364 330.887, 250.094 322.382, 248.945 319.315 C 248.365 317.767, 243.036 311.775, 237.103 306 C 227.074 296.238, 220 287.893, 220 285.824 C 220 284.231, 225.617 287.816, 236.629 296.437 C 242.608 301.118, 247.838 304.960, 248.250 304.974 C 248.662 304.988, 249 300.805, 249 295.678 L 249 286.356 242.943 279.428 C 234.515 269.788, 224.887 255.150, 219.614 243.957 C 215.009 234.183, 208 215.021, 208 212.206 C 208 209.513, 213.326 217.693, 221.540 233 C 233.402 255.109, 246.378 275, 248.937 275 C 249.388 275, 250.032 263.863, 250.367 250.250 C 250.703 236.637, 251.262 221.102, 251.609 215.727 C 252.224 206.213, 252.168 205.850, 249.490 201.985 C 245.566 196.323, 232.553 184.147, 223.894 178.036 C 213.886 170.972, 204.280 166.246, 195.226 163.930 C 187.259 161.892, 183.133 161.698, 176.344 163.041 M 319.528 163.009 C 309.773 164.753, 296.817 170.770, 285.277 178.915 C 276.035 185.439, 264.741 196.838, 262.087 202.320 C 260.100 206.425, 260.060 207.320, 261.037 226.043 C 261.596 236.744, 262.153 246.556, 262.276 247.847 C 262.498 250.176, 262.532 250.168, 266.709 246.847 C 269.024 245.006, 274.589 239.450, 279.076 234.500 C 283.563 229.550, 291.088 221.563, 295.798 216.750 C 307.690 204.599, 309.123 205.044, 300.325 218.156 C 293.789 227.898, 282.442 240.524, 274.401 247 C 270.645 250.025, 266.256 253.765, 264.648 255.312 L 261.723 258.124 262.243 269.111 C 262.530 275.153, 263.049 280.382, 263.397 280.730 C 265.382 282.715, 279.739 264.978, 291.322 246.231 C 299.919 232.317, 302.656 229.208, 301.429 234.750 C 298.018 250.159, 287.164 267.582, 271.074 283.477 L 263 291.453 263 299.168 C 263 303.410, 263.440 307.154, 263.979 307.487 C 264.517 307.820, 269.968 303.346, 276.092 297.546 C 282.215 291.746, 287.893 287, 288.709 287 C 291.377 287, 285.105 296.293, 274.203 308.495 L 263.905 320.019 264.203 326.250 C 264.443 331.283, 264.841 332.545, 266.276 332.818 C 268.630 333.267, 279.495 322.706, 297.467 302.500 C 305.294 293.700, 314.811 283.575, 318.615 280 C 325.463 273.564, 334.282 267.949, 335.550 269.217 C 335.912 269.579, 333.345 272.552, 329.846 275.825 C 326.347 279.098, 320.686 285.314, 317.267 289.638 C 313.847 293.962, 305.665 304.333, 299.085 312.685 C 285.998 329.297, 277.753 337.869, 269.250 343.702 L 263.714 347.500 264.371 366 C 264.733 376.175, 265.684 391.025, 266.484 399 C 267.285 406.975, 267.960 414.175, 267.984 415 C 268.007 415.825, 270.173 412.170, 272.797 406.878 C 281.593 389.134, 290.967 378.999, 310.992 365.581 C 318.104 360.816, 324.872 355.584, 326.032 353.955 C 331.258 346.617, 330.392 340.275, 323.314 334.046 C 320.771 331.807, 318.907 329.759, 319.172 329.495 C 319.436 329.230, 321.973 328.574, 324.809 328.036 C 336.359 325.846, 341.421 320.995, 342.516 311.066 C 343.678 300.525, 345.098 295.238, 347.988 290.680 C 353.566 281.884, 363.080 280.160, 373.731 286.015 C 377.075 287.854, 380.432 289.048, 381.309 288.712 C 385.807 286.986, 387.395 279.399, 385.592 268.250 L 384.742 263 388.223 263 C 396.447 263, 403.903 252.592, 406.135 237.998 C 408.296 223.858, 402.886 206.508, 392.914 195.596 C 384.418 186.300, 373.306 182.383, 363.783 185.326 C 358.349 187.006, 358.276 186.956, 355.056 179.401 C 349.571 166.528, 335.683 160.120, 319.528 163.009" stroke="none" fill="white" fill-rule="evenodd"/>
</svg>